<svg width="588" height="119" viewBox="0 0 588 119" fill="none" xmlns="http://www.w3.org/2000/svg">
<path d="M45.75 0.375L65 7.625L62.6875 15.125H93.625L90.4375 38.25L73.5625 38.3125L100.375 110.125L79.625 117.25L52.1875 43.8125L21.4375 116.625L0.4375 110.188L30.75 38L8.625 37.9375L10.375 15.125H39.5625L45.75 0.375ZM55.6875 80.0625L67.625 93.1875L45.5 115.375L33.5 102.375L55.6875 80.0625ZM111.812 8.875H134.438L134.375 25.75L137 19.1875C146.958 21.8542 154.312 24.8542 159.062 28.1875C163.854 31.4792 168.792 36.875 173.875 44.375L175 47.4375L174.875 9.0625L197.375 9V96.6875C197.75 100.688 196.021 104.958 192.188 109.5C188.396 114 180.542 115.938 168.625 115.312L168.688 93.1875C173.896 92.7708 176.083 89.4167 175.25 83.125C175.292 79.5833 174.5 75.75 172.875 71.625C171.292 67.4583 166.354 61.9167 158.062 55C149.771 48.0833 141.875 43.6042 134.375 41.5625V115.312H111.625L111.812 8.875ZM235.75 8.1875L235.688 114.938H212.125L212.062 11.8125L235.75 8.1875ZM288.25 1.4375L312.938 1.625V9.3125H339.438C345.896 10.3125 349.458 13.8958 350.125 20.0625L349.938 90.9375C347.312 102.188 343.583 109.354 338.75 112.438C333.958 115.479 328.062 117 321.062 117V93.3125C325.312 93.6458 327.104 83.5625 326.438 63.0625V32.9375L313.188 33V111.75L288 116.25L288.062 33H277.75V113.062L252.625 116.312L252.562 37.4375L261.062 32.3125H250.188L256.688 9.3125H288.25V1.4375ZM388 8.1875L387.938 114.938H364.375L364.312 11.8125L388 8.1875ZM409.312 8.75H481.188L478.625 31.8125C463.917 39.9792 451.896 49.9375 442.562 61.6875C433.271 73.3958 428.188 83.5208 427.312 92.0625L459.188 92C463.271 90.5833 466.521 87.4792 468.938 82.6875L486.25 94.1875C481.958 103.604 477.458 109.604 472.75 112.188C468.083 114.729 462.167 115.646 455 114.938H416.75C412.708 115.354 409.438 114.354 406.938 111.938C404.479 109.521 402.979 106.125 402.438 101.75C401.938 97.3333 402.104 92.7083 402.938 87.875C403.771 83 408.042 74.7917 415.75 63.25C423.458 51.7083 432.896 41.1458 444.062 31.5625H401.438L409.312 8.75ZM523.875 8.4375C520.917 35.8542 520.521 54.2292 522.688 63.5625C524.854 72.8542 528.292 80.2083 533 85.625C537.75 91.0417 548.5 92.3542 565.25 89.5625L565.125 9.5625L587.812 10.875V113.25L565.125 115.5V102.562L561.062 116.812L556.188 117.875C541.521 118.125 530.438 116.062 522.938 111.688C515.479 107.312 509.333 98.4375 504.5 85.0625C499.667 71.6458 497.688 52.3125 498.562 27.0625L499.875 12.625L523.875 8.4375Z" fill="#BC002D"/>
</svg>
