<svg width="1002" height="354" viewBox="0 0 1002 354" fill="none" xmlns="http://www.w3.org/2000/svg">
<mask id="mask0_95_19" style="mask-type:alpha" maskUnits="userSpaceOnUse" x="0" y="0" width="1002" height="354">
<path d="M5.33333 31.3335C5.33333 62.1335 5.33333 62.6668 8.13333 62.6668H10.8L8.13333 66.5335C5.46667 70.2668 5.33333 72.1335 5.33333 111.067C5.33333 149.734 5.2 151.734 2.8 152.4C0.4 152.934 0.266667 154.8 0.133333 187.2L0 221.334H53.2C90.8 221.334 107.6 220.934 110 219.734C112.4 218.667 114.133 218.667 116.533 219.734C127.067 224.534 154.4 208.134 162.133 192.267C165.067 186.267 165.2 186.134 165.333 190C165.467 192.134 166 199.067 166.533 205.2C168.267 222.667 163.333 221.334 228.533 221.467C271.467 221.467 282.8 221.867 280.8 223.067C259.067 236.934 229.733 259.467 231.333 261.067C231.733 261.467 241.2 255.6 252.4 248.267C263.6 240.8 273.2 234.667 273.733 234.667C274.267 234.667 274.667 235.734 274.667 237.067C274.667 238.534 275.467 241.334 276.533 243.467C280.667 251.867 280.8 251.734 261.333 259.867C235.2 270.934 199.733 288.4 196.8 291.867C194.8 294.134 194.533 295.067 195.867 296.4C197.333 297.867 203.6 295.6 212 290.534C213.067 289.867 215.467 288.667 217.333 287.867C219.2 287.067 228.133 282.534 237.333 278C258.8 267.2 278.667 258.534 280.133 259.467C280.8 259.867 281.333 261.467 281.333 263.2C281.333 264.934 282.533 270.934 284.133 276.8C285.6 282.534 288.533 295.067 290.667 304.667C297.333 335.334 306.933 363.334 304.933 346C303.2 331.467 301.2 318.667 298.667 304.667C297.067 296.534 295.467 281.734 295.067 271.734L294.267 253.334L299.333 251.2C302.133 250 309.067 248.667 314.667 248.134C320.267 247.467 326.267 246.267 328 245.334C333.2 242.667 337.333 238.4 337.333 235.867C337.333 231.467 332.267 231.467 323.6 235.867C316.4 239.334 300 245.2 297.067 245.334C296.4 245.334 296 243.867 296 242C296 239.467 295.333 238.667 293.2 238.667C290.8 238.667 290.533 238.134 291.333 235.6C293.467 228.8 293.6 225.334 291.867 225.334C290.667 225.2 290.933 224.534 292.533 223.334C294.4 222 298.533 221.334 306.133 221.334H316.933L317.867 215.734C318.4 212.667 319.467 209.334 320.267 208.4C321.333 207.067 321.333 205.734 320.267 203.467C319.467 201.734 318.4 191.6 317.867 181.067L316.933 162L272.133 161.6C247.467 161.334 227.067 160.8 226.667 160.4C226.267 160.134 225.733 153.6 225.6 146C225.067 133.067 225.2 132.267 227.867 131.334C230.667 130.534 230.667 130.267 230.667 65.2002V0.00017699H200.667H170.667V66.2668V132.4L165.2 123.867C162.267 119.2 158.267 114 156.4 112.534L152.933 109.6L157.733 101.867C164.8 90.4002 166.933 83.6002 167.6 69.2002C168.4 54.2668 166.933 46.2668 160.667 32.6668C153.733 17.8668 142.267 8.40018 123.6 2.13351C118.133 0.266844 109.2 0.00017699 61.2 0.00017699L5.33333 0.13351V31.3335ZM100.267 51.0668C104.4 53.3335 106.933 56.1335 109.2 60.6668C112.133 66.5335 112.267 67.6002 110.8 73.2002C110 76.5335 107.467 81.0668 105.2 83.3335L101.333 87.3335L82 87.7335L62.6667 88.1335V68.8002V49.4668L77.3333 49.6002C85.3333 49.7335 92.4 49.4668 92.8 48.9335C94.1333 47.7335 93.8667 47.6002 100.267 51.0668ZM99.2 133.334C100 133.334 102.933 134.934 105.733 136.8C109.467 139.2 110.4 140.667 109.467 141.867C108.8 142.667 108.133 146 108.267 149.2C108.267 152.267 107.333 157.2 106 160C102.667 167.467 97.7333 169.334 81.7333 169.334C71.0667 169.334 67.8667 169.867 64.2667 172C59.6 174.934 56 175.467 56 173.334C56 172.534 54.5333 172 52.8 172C50.9333 172 49.0667 171.334 48.5333 170.534C48.1333 169.734 46.5333 169.467 45.0667 169.734C40.9333 170.8 38.2667 169.467 40.1333 167.2C42 164.934 53.4667 164.667 55.7333 166.934C57.6 168.8 57.6 168.667 57.4667 157.2C57.3333 149.334 57.7333 148.267 60 147.6C62.2667 147.067 62.6667 145.734 62.6667 140.134V133.334H78.5333C89.6 133.334 94.8 132.8 95.4667 131.734C96.2667 130.534 96.6667 130.534 97.0667 131.734C97.3333 132.667 98.2667 133.334 99.2 133.334ZM27.3333 158.667C29.4667 161.067 29.4667 161.334 27.6 161.334C26.2667 161.334 25.3333 160.667 25.3333 160C25.3333 159.2 24.1333 158.667 22.6667 158.667C21.2 158.667 20 158 20 157.334C20 155.067 24.8 155.867 27.3333 158.667ZM30.6667 157.334C30.6667 158 30.1333 158.667 29.3333 158.667C28.6667 158.667 28 158 28 157.334C28 156.534 28.6667 156 29.3333 156C30.1333 156 30.6667 156.534 30.6667 157.334ZM42.6667 157.334C42.6667 158 41.0667 158.667 39.0667 158.534C35.7333 158.534 35.6 158.4 38 157.334C41.6 155.734 42.6667 155.734 42.6667 157.334ZM53.3333 157.334C53.3333 158 52.1333 158.667 50.6667 158.667C49.2 158.667 48 158 48 157.334C48 156.534 49.2 156 50.6667 156C52.1333 156 53.3333 156.534 53.3333 157.334ZM200 158.667C200 159.334 197.067 160 193.333 160C189.733 160 186.667 159.334 186.667 158.667C186.667 157.867 189.733 157.334 193.333 157.334C197.067 157.334 200 157.867 200 158.667ZM174.667 169.334C174.667 170 174.4 170.667 174.133 170.667C173.733 170.667 173.067 170 172.667 169.334C172.267 168.534 172.533 168 173.2 168C174 168 174.667 168.534 174.667 169.334ZM160.533 170.134C163.733 171.334 163.067 173.334 159.467 173.334C156 173.334 154.133 171.734 155.6 170.134C156.667 169.067 157.867 169.067 160.533 170.134ZM185.333 172C185.333 172.667 185.067 173.334 184.8 173.334C184.4 173.334 183.733 172.667 183.333 172C182.933 171.2 183.2 170.667 183.867 170.667C184.667 170.667 185.333 171.2 185.333 172ZM176 176C176 177.467 169.6 179.334 168.533 178.267C168 177.867 168.133 176.934 168.667 176.134C169.733 174.267 176 174.267 176 176ZM139.6 187.467C139.2 187.867 138 188 137.067 187.6C136 187.2 136.4 186.8 137.867 186.8C139.333 186.667 140.133 187.067 139.6 187.467Z" fill="black"/>
<path d="M328.933 2.40014C328.667 3.73348 328.667 9.46681 329.067 15.0668C329.6 24.0001 330 25.3335 332.133 25.3335C333.6 25.3335 334.667 25.8668 334.667 26.6668C334.667 27.3335 333.467 28.0001 332 28.0001C329.467 28.0001 329.333 28.9335 329.2 58.9335C329.067 76.0001 329.067 96.8001 329.333 105.067C329.6 119.467 329.467 120.267 326.8 120.933C324 121.6 324 122.133 324 156.533C324 195.867 324.533 201.333 328.133 201.333C329.467 201.333 330.933 201.867 331.333 202.667C332.133 203.867 331.467 204.133 326.667 204.533C325.467 204.667 324.8 205.733 325.067 207.333C325.333 208.8 325.867 211.867 326.267 214.267C326.667 216.933 328 218.8 329.733 219.467C331.333 220.133 361.067 220.933 395.733 221.333L458.8 222L443.467 235.067C434.933 242.267 428 248.8 428 249.733C428 250.667 425.333 255.867 422.133 261.333C418.8 266.8 416.4 271.467 416.8 271.867C417.067 272.267 420.4 269.2 424 265.2L430.667 258L434.533 262.667C436.8 265.2 438.667 268.133 438.667 269.067C438.667 270 439.867 273.2 441.467 276.267C444.667 282.533 443.733 284 435.867 284C429.6 284 423.067 288.533 417.733 296.533C409.733 308.667 415.867 309.867 435.733 300C443.067 296.4 449.467 292.8 449.867 292.133C450.933 290.533 470.8 283.867 476.4 283.2C478.8 282.933 483.333 281.867 486.667 280.667C490.267 279.333 494.267 278.8 497.067 279.333C500.133 279.867 502.667 279.467 505.733 277.6C508.133 276.133 515.733 274 522.667 272.8C529.6 271.467 536.667 270.267 538.133 269.867C540.4 269.467 541.333 270.4 543.2 275.067C546 282.667 546 282.933 541.2 285.733L537.067 288L537.867 284.4C539.867 276.533 539.6 275.333 535.467 274.933C530.8 274.4 524.267 276.933 522.667 280C521.733 281.733 522.4 283.2 525.467 286.133C527.733 288.267 530.667 292.133 532 294.667C533.333 297.2 536.267 301.067 538.533 303.333C542.267 306.8 543.067 307.067 546.667 305.733C551.067 304.133 552 304.533 551.067 307.867C550.4 310.4 548.4 311.333 529.333 318.133C515.867 322.933 512.667 325.2 511.333 330.933C509.6 337.6 516.267 335.867 531.733 325.333C551.467 312.133 552.267 312 554 323.733C555.6 334.533 556.667 334.133 557.333 322.8L558 311.6L571.333 306.533L584.667 301.6L587.067 307.067C589.467 312.4 589.467 312.8 587.2 316.667C576.933 334.533 574.533 339.067 575.333 339.733C576.533 340.933 580.4 338.267 582 335.2C582.8 333.733 585.067 329.733 587.2 326.133C591.733 318.267 592.8 319.2 595.333 333.867L596.933 343.333L601.867 343.2C609.333 342.933 613.867 338.933 614.8 331.733C615.333 328.533 617.467 322.267 619.733 317.867C624.933 307.467 630.8 293.067 630.133 292.267C629.2 291.467 618.533 308.267 613.467 318.4C609.333 326.667 608.533 327.467 606 325.6C603.6 323.867 597.333 313.867 597.333 311.867C597.333 310.8 600.933 306 605.333 301.067C612.533 293.067 614.133 292 620.533 290.667C628 289.067 633.6 285.333 628.267 285.333C626.8 285.333 623.067 286.267 619.867 287.333C616.667 288.533 613.333 289.067 612.533 288.8C611.6 288.4 606.533 289.733 601.333 291.6C594.133 294 591.333 294.533 590.667 293.333C588.933 290.533 583.733 257.333 584.4 254.4C584.933 252.8 584.667 250.8 583.867 249.867C583.2 248.933 582.4 244 582.267 238.8C582.267 233.6 581.733 229.333 581.2 229.333C580.667 229.333 579.2 230.267 578 231.467C576.4 233.2 576 235.333 576.667 241.867C577.333 249.867 577.333 250 573.067 252.667C569.467 254.933 568.667 256.267 568.667 260.133C568.533 265.067 565.2 273.333 562.267 275.867C561.2 276.667 558.667 277.733 556.533 278.133C553.067 278.8 552.267 278.4 550.8 275.067C545.467 263.467 544 253.067 547.333 248.4C551.6 242.267 543.067 241.333 533.733 246.933C529.2 249.6 527.867 253.867 531.067 255.067C534 256.133 538.933 265.333 536.933 266C534.267 266.8 514.8 269.333 511.2 269.333C508.133 269.333 507.867 268.933 508.533 265.6C509.067 263.6 512.533 255.867 516.133 248.4C519.867 240.933 522.533 234.133 522 233.2C521.467 232.4 519.333 232 516.8 232.533C481.733 238.8 464.8 243.2 456.267 248.133C453.867 249.467 451.333 250.667 450.8 250.667C448.4 250.667 451.6 242.667 455.067 240C457.067 238.4 458.667 236.267 458.667 235.333C458.667 234.4 461.867 230.8 465.733 227.467L472.933 221.333L504 221.067L535.2 220.667L539.733 206.4L544.267 192.133L567.867 191.733C603.467 191.067 600.4 190.267 604.8 202.4C607.2 208.933 610.133 214.267 612.8 217.067C617.2 221.333 617.333 221.333 629.867 221.333C641.067 221.333 642.533 221.6 643.333 223.867C644.533 227.867 643.733 236.4 641.867 239.6C640.267 242.133 640.4 242.533 642.667 243.333C644.533 243.867 645.333 245.333 645.333 248.133C645.333 251.867 649.333 257.333 652 257.333C652.8 257.333 655.867 255.733 658.8 253.867C663.733 250.8 664 250.267 662.267 248.267C661.067 247.067 659.867 244.4 659.333 242.4C658.667 239.6 659.067 238.533 661.333 237.333C664.933 235.467 668.667 238.267 670 243.733C670.4 245.733 671.067 248.4 671.467 249.6C672 251.2 670.667 252.667 666.8 254.667C661.333 257.333 659.6 260 663.333 260C664.4 260 668.4 258.8 672.267 257.2C680.933 253.733 694.8 250.4 713.333 247.333C727.867 244.8 735.6 241.733 723.067 243.467C715.2 244.4 714.267 243.733 719.733 240.8C721.733 239.733 726.533 235.867 730.533 232.133C735.6 227.6 739.333 225.333 742.8 224.8C745.6 224.4 748 223.333 748.267 222.667C748.667 221.467 758.933 220.933 798.4 220.133L804 220V191.333V162.667L801.067 162.533C799.333 162.4 785.067 162.533 769.333 162.667C737.333 162.8 731.067 161.733 720 154.267C698.933 139.867 689.867 116 697.6 94.6668C700.267 87.0668 701.2 86.0001 704.4 85.6001C706.933 85.3335 709.067 83.6001 711.333 80.1335C715.6 73.3335 728.8 64.6668 739.867 61.3335C744.933 59.8668 749.867 58.6668 751.067 58.6668C752.267 58.6668 753.467 58.1335 753.867 57.4668C754.267 56.9335 757.733 56.9335 761.6 57.4668C770.933 59.0668 806.8 59.0668 808.267 57.6001C808.933 56.9335 809.2 44.2668 809.067 29.2001L808.667 2.00014L775.333 1.60014C749.867 1.33348 739.733 1.73348 732.4 3.33348C711.733 7.46681 690.267 18.4001 675.467 32.0001C665.867 40.9335 652.8 58.1335 650.533 64.9335C649.6 67.7335 647.467 72.9335 645.867 76.6668C644.133 80.2668 642.667 84.9335 642.667 86.8001C642.667 89.4668 641.867 90.5335 639.333 91.2001C636.4 92.0001 636 92.6668 636 98.6668C636 102.4 635.6 105.333 634.933 105.333C634.4 105.333 633.067 102.667 631.867 99.3335C630.133 94.5335 630 93.0668 631.333 92.2668C633.067 91.3335 628.667 76.6668 610.133 21.3335L603.067 0.666812L577.733 0.266812L552.4 0.000144854L548.667 11.6001C546.667 18.1335 543.6 27.2001 542 32.0001C540.4 36.8001 537.867 44.5335 536.4 49.3335C533.467 58.5335 527.2 76.9335 521.467 92.9335C518.933 100 517.333 102.667 515.467 102.933C513.867 103.2 512.4 104.933 511.733 107.333C511.067 109.467 508.133 117.867 505.333 126C502.533 134 497.467 149.333 494 160C490.533 170.667 487.2 179.867 486.533 180.667C485.867 181.333 485.333 178.267 485.333 172.933V164H433.333C392.667 164 381.333 163.6 381.2 162.267C381.067 161.467 380.933 155.733 380.8 149.733L380.667 138.667H430.4H480V122.667C480 107.467 480.133 106.667 482.667 106.667C485.333 106.667 485.467 106 485.067 94.9335L484.667 83.3335L435.333 83.2001L386 83.0668L385.6 71.0668L385.2 59.0668L405.2 58.0001C416.133 57.4668 425.867 57.4668 426.533 58.0001C427.333 58.4001 442.267 58.4001 459.6 57.8668C477.067 57.2001 490.133 56.5335 488.667 56.2668C482.933 55.3335 482 54.2668 486 53.4668L490 52.6668L490.4 26.4001L490.667 0.000144854H410.133C333.733 0.000144854 329.6 0.133478 328.933 2.40014ZM345.333 14.6668C345.333 16.4001 341.333 16.4001 338.667 14.6668C337.2 13.7335 337.733 13.3335 341.067 13.3335C343.333 13.3335 345.333 13.8668 345.333 14.6668ZM576.933 106C577.867 109.6 579.6 115.6 580.667 119.333C581.6 122.933 582.933 128 583.333 130.267L584.267 134.667H572.933H561.6L564.667 122.933C566.4 116.533 568.4 109.333 569.2 106.933C570.667 102.267 570.667 102 570.667 99.8668C570.667 99.0668 571.6 98.6668 572.8 98.9335C574.267 99.2002 575.733 101.867 576.933 106ZM669.867 189.867C676.267 195.867 695.867 209.333 698.267 209.333C700.667 209.333 700.4 211.333 698 213.333C696.533 214.533 696.133 216.267 696.667 218.8C697.733 223.333 695.6 224.667 685.333 226C681.333 226.533 674.133 228.133 669.6 229.6C660.267 232.4 657.333 232.133 657.333 228.133C657.333 222.4 658.667 221.333 666.133 221.333H673.333L670.667 216C669.2 213.2 668 209.867 668 208.8C668 207.6 667.2 204.8 666.133 202.4C665.2 200 662.933 193.733 661.333 188.667C659.733 183.467 658.133 178.4 657.733 177.333C657.467 176.267 658.8 177.467 660.8 180C662.8 182.533 666.933 186.933 669.867 189.867ZM761.867 207.467C765.467 208.8 762.8 210.667 757.333 210.667C749.333 210.667 748.933 207.067 756.933 206.8C758.533 206.667 760.667 207.067 761.867 207.467ZM787.333 210.667C787.733 211.333 786.933 212 785.467 212C783.867 212 782.667 211.333 782.667 210.667C782.667 209.867 783.467 209.333 784.533 209.333C785.6 209.333 786.933 209.867 787.333 210.667ZM734 220C746.8 222.133 747.067 222.267 741.6 223.067C738.4 223.6 735.2 223.733 734.4 223.2C733.733 222.8 729.733 222.933 725.6 223.733C706.933 227.333 705.467 226.933 711.067 219.867C713.333 216.933 714.667 216.267 717.333 216.933C719.2 217.333 726.667 218.667 734 220ZM696 228.8C696 229.2 695.333 230.8 694.533 232.267C692.933 235.333 695.067 245.333 697.333 245.333C698 245.333 699.733 243.067 701.2 240.267C704.267 234.133 706.133 232.533 711.067 231.333C714.267 230.533 714.667 230.667 714.667 233.867C714.667 235.733 713.067 238.933 711.067 241.2C708 244.267 705.2 245.467 696 247.2C679.333 250.4 680.133 250.667 681.6 241.6C683.2 231.2 685.6 228 691.333 228C693.867 228 696 228.4 696 228.8ZM485.6 244.267C484.667 245.2 484 250 483.867 255.867C483.733 269.6 482.667 272.667 478.667 272.667C475.6 272.667 475.333 272.133 474.933 265.733C474.4 256.933 480.4 242.8 484.667 242.667C486.667 242.667 486.8 243.067 485.6 244.267ZM502.8 258.933C501.867 262.8 500.8 266.8 500.133 267.867C499.067 269.6 488.267 272.267 486.533 271.2C485.467 270.667 488.133 257.333 490.667 250.267C492 246.667 493.6 245.067 496 244.533C497.867 244.133 500 243.6 500.667 243.467C503.067 242.8 504.267 251.6 502.8 258.933ZM462.267 259.067C464.933 262.933 468.8 274.4 467.733 275.333C467.467 275.467 466 276.133 464.4 276.533C462.133 277.2 461.333 276.933 461.333 275.6C461.333 274.533 459.867 272.667 458.133 271.6C454.267 269.067 452.933 261.2 455.733 257.2C458.133 253.733 458.8 254 462.267 259.067ZM579.733 269.2C579.467 271.867 578.4 272.8 575.067 273.467C569.733 274.533 569.6 273.467 574.267 265.467C577.6 259.6 577.733 259.6 578.933 262.667C579.6 264.4 580 267.333 579.733 269.2ZM568.4 279.6C567.067 283.333 565.467 284.933 562.533 285.733C560.4 286.267 560 286 560.667 283.867C561.2 282.4 560.933 281.333 560.133 281.333C556.667 281.333 559.067 278.8 563.067 278.267C565.333 278 567.733 277.6 568.267 277.6C568.8 277.467 568.933 278.4 568.4 279.6ZM583.2 290.8L584.133 296.933L573.067 301.067C566.933 303.2 561.067 305.467 559.867 306C558.267 306.533 557.467 305.867 557.067 303.333C556.4 300.533 557.2 299.333 561.2 296.533C563.733 294.8 566.667 293.333 567.467 293.333C568.4 293.333 571.6 290.267 574.8 286.533C581.2 278.933 581.467 279.067 583.2 290.8ZM548.4 288.533C549.2 290.4 540.933 295.2 539.467 293.733C537.733 291.867 538.8 289.733 542.4 288.4C547.333 286.4 547.6 286.4 548.4 288.533ZM566.667 289.2C566.667 291.733 559.333 295.867 557.733 294.267C556.4 292.8 558.533 289.333 561.6 288C566.133 286.267 566.667 286.4 566.667 289.2ZM550.667 296.533C550.667 297.6 549.733 298.8 548.533 299.2C544.533 300.667 543.6 300 546 297.333C548.8 294.267 550.667 293.867 550.667 296.533ZM597.067 302C595.333 305.867 594 306.267 592.8 303.2C591.467 299.867 591.867 298.933 594.4 298.267C598 297.467 598.667 298.533 597.067 302Z" fill="black"/>
<path d="M817.2 37.3335C817.6 74.6668 817.6 74.6668 814.8 74.6668H812V148L812.133 221.333H842.133C865.067 221.333 872 220.933 872.133 219.6C872.267 218.8 872.267 200.267 872.133 178.667L871.733 139.333L903.6 139.6L935.333 140L935.6 172.933C935.867 209.6 937.067 217.467 942.133 219.867C944.133 220.8 953.867 221.333 967.333 221.333C989.467 221.333 995.2 220.667 991.733 218.533C990.533 217.6 990.4 217.067 991.467 216.267C992.267 215.733 993.333 214 993.867 212.4C994.533 210.267 994.133 209.333 992 208.667C988.4 207.6 988.667 206.4 992.8 203.867L996.267 201.733L996.133 129.6C996.133 59.6002 996.267 57.3335 998.667 57.3335C1001.07 57.3335 1001.2 55.8668 1001.33 28.6668V0.000151217L971.067 0.266818C941.467 0.666818 940.667 0.800151 941.067 3.33348C941.333 4.80015 942.267 6.40015 943.067 6.93348C944.267 7.73348 944.133 8.40015 942.667 9.33349C941.2 10.2668 940.667 13.3335 940.667 21.6002C940.533 54.8002 940 62.6668 938.133 62.6668C936.267 62.6668 933.867 74.1335 934.933 78.6668C935.333 80.4002 931.067 80.6668 903.733 81.0668L872 81.3335V75.4668C872 70.8002 872.533 69.4668 874.667 68.9335C877.2 68.2668 877.333 67.0668 877.333 39.4668C877.333 14.1335 877.067 10.6668 875.2 10.6668C874.133 10.6668 872.267 11.6002 871.2 12.6668C868.667 15.2002 865.333 15.2002 865.333 12.8002C865.333 11.7335 864.4 10.6668 863.333 10.1335C862.267 9.73349 861.333 8.93349 861.333 8.13348C861.333 6.40015 868.4 5.33348 870.4 6.93348C871.467 7.86682 872 7.86682 872 6.80015C872 6.00015 873.2 5.33348 874.667 5.33348C876.4 5.33348 877.333 4.40015 877.333 2.80015C877.333 0.266818 876.133 0.133485 847.067 0.000151217H816.667L817.2 37.3335ZM826.667 194.667C826.667 195.333 825.733 196 824.667 196C823.6 196 822.667 195.333 822.667 194.667C822.667 193.867 823.6 193.333 824.667 193.333C825.733 193.333 826.667 193.867 826.667 194.667ZM822.4 209.6C822 210.533 820.933 211.333 820 211.333C819.067 211.333 818 210.533 817.733 209.6C817.333 208.667 818.267 208 820 208C821.733 208 822.667 208.667 822.4 209.6Z" fill="black"/>
<path d="M350 241.333C348.533 241.867 345.867 243.867 344.133 245.733C341.067 249.067 341.067 249.333 343.2 253.867C344.933 257.6 345.333 262.933 345.333 282.933V307.467L339.6 310.267C332.4 313.733 325.333 319.6 325.333 322.133C325.333 326.667 334.8 322.533 344 314.133C349.2 309.2 382.133 290.933 383.333 292.267C383.6 292.533 384.533 300.267 385.2 309.333C386.8 327.2 390.267 347.867 392.133 350C393.6 351.6 393.6 350 392 328.267C391.2 318.533 391.067 309.733 391.6 308.933C392.133 308 392.4 303.067 392.133 297.867L391.733 288.4L397.6 286C406.667 282.267 427.067 276 430.267 276C432.933 276 435.6 273.867 434.533 272.667C433.6 271.867 415.067 276.267 404 280C397.733 282 392.4 283.467 392.133 283.2C391.067 282.133 391.733 272.8 392.933 272.4C396.133 271.2 402.667 266.533 402.667 265.2C402.667 263.733 399.333 264.133 393.867 266.267C391.867 266.933 391.733 266.533 392.533 263.2C394.133 256.933 397.067 253.6 402.133 252.133C407.2 250.667 417.333 244.4 417.333 242.667C417.333 242.133 415.067 242.267 412.4 243.2C409.6 244.133 402 246.533 395.333 248.667C388.8 250.667 381.733 253.467 379.733 254.933C377.867 256.267 375.333 257.333 374.133 257.333C372.933 257.333 368.267 259.2 363.867 261.467C359.333 263.733 355.333 265.2 354.933 264.667C354.533 264.267 354.933 260.8 355.867 256.933C358.933 243.6 359.067 242.4 357.2 241.2C354.933 239.867 353.467 239.867 350 241.333ZM381.333 267.867C382 269.333 382.667 270.8 382.667 271.067C382.667 271.333 378 273.333 372.4 275.333C359.867 279.733 354 284.4 356.4 288.267C357.733 290.267 358.933 290.667 362.533 290C366.8 289.2 369.2 290.533 369.333 293.6C369.333 294.133 365.2 296.8 360 299.333L350.667 304V297.6C350.667 294 351.067 288.267 351.467 284.8C352.267 278.933 352.933 278.133 360.4 273.067C367.6 268.267 372.933 265.867 378.267 265.467C379.2 265.333 380.533 266.533 381.333 267.867ZM382.8 288.4C381.733 289.467 381.333 288.533 381.333 285.2C381.333 279.067 383.2 277.2 383.733 282.667C384 285.067 383.6 287.6 382.8 288.4Z" fill="black"/>
<path d="M724.267 248.267C721.2 248.8 715.733 250.667 712.267 252.533C706.533 255.467 691.467 258.8 676 260.533C669.2 261.333 656.133 266.667 653.467 269.867C652 271.6 652.267 272 655.067 272.8C659.067 273.733 659.333 273.067 650 292.667C646.133 300.667 642 310.4 640.8 314.267C638.4 321.467 638.4 330.933 640.667 330.4C641.333 330.133 645.6 321.733 650.267 311.6C654.8 301.467 658.8 292.667 659.333 292.267C660.533 291.067 662.533 294.533 664 300.667C667.467 314.8 668.4 316.667 672.667 317.067C674.933 317.2 678.667 316.133 681.333 314.533L685.867 311.733L682.267 309.067C677.067 305.333 677.733 302.133 684.133 298.8C690.533 295.467 692 296 692 302C692 306.8 694.267 309.467 696 306.667C696.533 305.733 697.467 302.667 697.867 299.867C698.667 294.933 701.6 290.667 704.267 290.667C705.067 290.667 705.333 292 704.933 293.6C699.2 317.333 698.8 320.133 698.667 336.267C698.667 345.733 699.2 353.333 699.867 353.333C702.4 353.333 703.733 349.333 705.2 336C708.267 309.333 713.2 289.867 717.067 288.8C718.267 288.533 721.2 287.733 723.333 287.2L727.333 286.133L723.067 285.467L718.667 284.667L722.133 280.667C724 278.4 725.2 277.6 724.933 278.667C724.667 279.733 725.333 281.733 726.4 283.067C728.267 285.067 728.267 286.267 726.8 291.067C725.867 294.133 724.667 299.067 724 302C723.333 304.933 721.067 312.4 718.933 318.667C714.933 330.133 714.8 332 717.867 332C720.933 332 723.6 327.6 728.667 314.667C735.2 297.733 740.267 288.8 748.267 280.267C751.867 276.4 754.667 272.533 754.267 271.6C753.467 268.933 744 268.933 736.133 271.733C732 273.2 723.867 275.067 718 275.867C712.133 276.8 701.867 278.8 695.067 280.533C684.667 283.067 682.667 283.2 682 281.6C680.933 278.667 672.8 280.4 667.867 284.533C662.4 289.2 660.533 288.933 664 284C667.467 279.067 668.8 278.4 683.467 273.467C691.467 270.8 695.733 269.867 696.8 270.8C697.867 271.733 702.133 270.267 710.133 266.133C716.667 262.8 723.867 259.467 726.133 258.667C731.067 256.8 736 252.667 736 250.133C736 247.733 731.333 246.933 724.267 248.267ZM704.533 262.8C702.8 264.533 697.467 266.4 690 268.133C675.333 271.333 674.267 271.333 679.467 268.133C681.867 266.667 684 264.8 684.267 264C684.933 261.867 704.267 257.333 706 258.8C706.8 259.6 706.267 261.067 704.533 262.8ZM706.667 280.533C706.667 282.4 703.867 288.267 703.2 287.733C702.133 286.667 704.133 280 705.467 280C706.133 280 706.667 280.267 706.667 280.533ZM687.733 289.6C688 291.067 686.8 291.867 683.733 292.4C678 293.2 677.333 292.4 681.2 289.2C684.8 286.267 687.067 286.533 687.733 289.6Z" fill="black"/>
<path d="M554 255.2C551.733 256.8 551.6 257.6 553.067 262.133C556.933 275.467 562.267 274.933 561.6 261.467C561.067 252.667 559.333 251.333 554 255.2Z" fill="black"/>
<path d="M596.667 259.2C594.4 260.134 591.867 262 590.8 263.2C589.067 265.2 589.333 265.867 592.933 269.2C595.6 271.6 597.6 275.2 598.8 279.734C600.267 285.867 600.8 286.534 603.2 285.867C608.533 284.267 609.6 282.534 607.067 279.734C604.8 277.2 604.133 268.534 605.467 260.667C606.133 257.334 602.267 256.667 596.667 259.2Z" fill="black"/>
</mask>
<g mask="url(#mask0_95_19)">
<rect x="-169" y="-205" width="1313" height="723" fill="#D9D9D9"/>
</g>
</svg>
